<svg class="ibm-logo" viewBox="0 0 57.4 20"> <g> <polygon points="0,0 9.8,0 9.8,1.3 0,1.3 0,0 "></polygon> <polygon points="0,2.7 9.8,2.7 9.8,4 0,4 0,2.7 "></polygon> <polygon points="2.8,5.4 7,5.4 7,6.6 2.8,6.6 2.8,5.4 "></polygon> <polygon points="2.8,8 7,8 7,9.3 2.8,9.3 2.8,8 "></polygon> <polygon points="2.8,10.7 7,10.7 7,12 2.8,12 2.8,10.7 "></polygon> <polygon points="2.8,13.4 7,13.4 7,14.7 2.8,14.7 2.8,13.4 "></polygon> <polygon points="0,16.1 9.8,16.1 9.8,17.3 0,17.3 0,16.1 "></polygon> <polygon points="0,18.7 9.8,18.7 9.8,20 0,20 0,18.7 "></polygon> <path d="M11.2,2.7h15.1l0,0c0.1,0.2,0.4,1,0.4,1.3l0,0H11.2V2.7L11.2,2.7L11.2,2.7z"></path> <polygon points="14,5.4 18.2,5.4 18.2,6.6 14,6.6 14,5.4 "></polygon> <path d="M22.4,5.4h4.5l0,0c0,0.3-0.1,1-0.2,1.3l0,0h-4.3L22.4,5.4L22.4,5.4L22.4,5.4z"></path> <path d="M14,10.7h10.8l0,0c0.3,0.2,0.9,0.9,1.2,1.3l0,0H14V10.7L14,10.7L14,10.7z"></path> <polygon points="14,13.4 18.2,13.4 18.2,14.7 14,14.7 14,13.4 "></polygon> <path d="M22.4,13.4h4.3l0,0c0.1,0.2,0.2,1,0.2,1.3l0,0h-4.5L22.4,13.4L22.4,13.4L22.4,13.4z"></path> <path d="M11.2,16.1h15.5l0,0c0,0.3-0.3,1-0.4,1.3l0,0H11.2V16.1L11.2,16.1L11.2,16.1z"></path> <path d="M11.2,18.7h14.1l0,0C24,19.8,22.9,20,21,20l0,0h-1.4h-8.4L11.2,18.7L11.2,18.7L11.2,18.7z"></path> <polygon points="28,0 36,0 36.5,1.3 28,1.3 28,0 "></polygon> <polygon points="28,2.7 36.9,2.7 37.3,4 28,4 28,2.7 "></polygon> <polygon points="30.8,5.4 37.8,5.4 38.2,6.6 30.8,6.6 30.8,5.4 "></polygon> <polygon points="39.8,8 47.6,8 47.6,9.3 43.4,9.3 43.4,8.2 43.1,9.3 39.4,9.3 39.8,8 "></polygon> <polygon points="39.1,9.3 35.4,9.3 35,8.2 35,9.3 30.8,9.3 30.8,8 38.7,8 39.1,9.3 "></polygon> <polygon points="30.8,10.7 35,10.7 35,12 30.8,12 30.8,10.7 "></polygon> <polygon points="30.8,13.4 35,13.4 35,14.7 30.8,14.7 30.8,13.4 "></polygon> <polygon points="28,16.1 35,16.1 35,17.3 28,17.3 28,16.1 "></polygon> <polygon points="28,18.7 35,18.7 35,20 28,20 28,18.7 "></polygon> <polygon points="42.4,0 50.4,0 50.4,1.3 42,1.3 42.4,0 "></polygon> <polygon points="41.6,2.7 50.4,2.7 50.4,4 41.1,4 41.6,2.7 "></polygon> <polygon points="40.7,5.4 47.6,5.4 47.6,6.6 40.2,6.6 40.7,5.4 "></polygon> <polygon points="43.4,10.7 47.6,10.7 47.6,12 43.4,12 43.4,10.7 "></polygon> <polygon points="43.4,13.4 47.6,13.4 47.6,14.7 43.4,14.7 43.4,13.4 "></polygon> <polygon points="43.4,16.1 50.4,16.1 50.4,17.3 43.4,17.3 43.4,16.1 "></polygon> <polygon points="43.4,18.7 50.4,18.7 50.4,20 43.4,20 43.4,18.7 "></polygon> <polygon points="35.9,10.7 42.6,10.7 42.2,12 36.3,12 35.9,10.7 "></polygon> <polygon points="36.8,13.4 41.7,13.4 41.2,14.7 37.2,14.7 36.8,13.4 "></polygon> <polygon points="37.7,16.1 40.8,16.1 40.3,17.3 38.1,17.3 37.7,16.1 "></polygon> <polygon points="38.6,18.7 39.9,18.7 39.4,20 39,20 38.6,18.7 "></polygon> <path d="M14,9.3h10.8l0,0c0.3-0.2,1-0.9,1.3-1.3l0,0H14V9.3L14,9.3L14,9.3z"></path> <path d="M11.2,1.3h14.1l0,0C24,0.2,22.9,0,21,0l0,0h-1.4h-8.4L11.2,1.3L11.2,1.3L11.2,1.3z"></path> <path d="M55.1,19.9c1.2,0,2.3-0.9,2.3-2.2c0-1.3-1-2.2-2.3-2.2c-1.2,0-2.3,0.9-2.3,2.2C52.9,19,53.9,19.9,55.1,19.9 L55.1,19.9z M53.3,17.7c0-1.1,0.8-1.9,1.8-1.9s1.8,0.8,1.8,1.9s-0.8,1.9-1.8,1.9S53.3,18.8,53.3,17.7L53.3,17.7z M54.7,17.9h0.5 l0.7,1.1h0.4l-0.7-1.1c0.4,0,0.7-0.2,0.7-0.7s-0.3-0.7-0.9-0.7h-1V19h0.4v-1.1H54.7z M54.7,17.5v-0.8h0.5c0.3,0,0.6,0.1,0.6,0.4 c0,0.4-0.3,0.4-0.6,0.4H54.7L54.7,17.5z"></path> </g> </svg>
